<svg xmlns="http://www.w3.org/2000/svg" viewBox="0 0 246.93 166.5"><defs><style>.cls-1,.cls-2{fill:none;stroke:#000;stroke-miterlimit:10;}.cls-1{stroke-width:7px;}.cls-2{stroke-width:1.89px;}</style></defs><title>bookbord</title><g id="Layer_2" data-name="Layer 2"><g id="Layer_1-2" data-name="Layer 1"><rect x="233.91" y="62.69" width="13.03" height="103.81" rx="2.78" ry="2.78"/><path d="M244,76.11H226.22a3,3,0,0,1-3-3V24.19A20.77,20.77,0,0,1,244,3.48h0a3,3,0,0,1,3,3v66.7A3,3,0,0,1,244,76.11Z"/><rect x="121.91" y="28.49" width="8.27" height="61.43" rx="4.13" ry="4.13"/><rect x="137.15" y="74.25" width="8.27" height="43.42" rx="4.13" ry="4.13" transform="translate(-17.16 159.71) rotate(-56.1)"/><rect x="10.57" y="63.41" width="12.92" height="102.99" rx="2.75" ry="2.75"/><path d="M34.07,38.34V57.87A9.06,9.06,0,0,1,25,66.93H9.07A9.07,9.07,0,0,1,0,57.87V38.34Z"/><path d="M5.24,4.57v39a1.05,1.05,0,0,1-1.06,1.06H1.07A1.06,1.06,0,0,1,0,43.55v-39a1.18,1.18,0,0,1,0-.28,1.07,1.07,0,0,1,1-.8H4.18a1.05,1.05,0,0,1,1,.8A1.18,1.18,0,0,1,5.24,4.57Z"/><path d="M14.85,4.55v39a1.05,1.05,0,0,1-1.06,1.06H10.67a1.05,1.05,0,0,1-1.06-1.06v-39a1.09,1.09,0,0,1,0-.26,1.06,1.06,0,0,1,1-.8h3.12a1,1,0,0,1,1,.8A.75.75,0,0,1,14.85,4.55Z"/><path d="M24.46,4.56v39a1.06,1.06,0,0,1-1.06,1.06H20.29a1.06,1.06,0,0,1-1.07-1.06v-39a1.17,1.17,0,0,1,0-.27,1.06,1.06,0,0,1,1-.8H23.4a1.05,1.05,0,0,1,1,.8A.8.8,0,0,1,24.46,4.56Z"/><path d="M34.06,4.55v39A1.05,1.05,0,0,1,33,44.61H29.89a1.06,1.06,0,0,1-1.06-1.06v-39a1.09,1.09,0,0,1,0-.26,1.06,1.06,0,0,1,1-.8H33a1,1,0,0,1,1,.8A.75.75,0,0,1,34.06,4.55Z"/><circle class="cls-1" cx="128" cy="80.5" r="77"/><circle class="cls-2" cx="128" cy="80.5" r="62"/></g></g></svg>
